<svg width="24" height="24" viewBox="0 0 24 24" fill="none" xmlns="http://www.w3.org/2000/svg">
<g clip-path="url(#clip0_220_611)">
<path d="M10.4067 5.19704L4 11.637L10.4067 18.077C10.4645 18.153 10.538 18.2157 10.6222 18.2608C10.7064 18.3059 10.7993 18.3324 10.8946 18.3385C10.9899 18.3445 11.0854 18.3301 11.1747 18.296C11.2639 18.262 11.3448 18.2092 11.4118 18.1412C11.4789 18.0732 11.5305 17.9915 11.5633 17.9018C11.596 17.8121 11.6091 17.7164 11.6017 17.6212C11.5943 17.526 11.5664 17.4335 11.5201 17.3499C11.4738 17.2664 11.4101 17.1938 11.3333 17.137L6.54 12.3037H19.2933C19.4701 12.3037 19.6397 12.2335 19.7647 12.1084C19.8898 11.9834 19.96 11.8139 19.96 11.637C19.96 11.4602 19.8898 11.2907 19.7647 11.1656C19.6397 11.0406 19.4701 10.9704 19.2933 10.9704H6.54L11.3333 6.13704C11.458 6.01151 11.5277 5.84159 11.527 5.66468C11.5264 5.48777 11.4555 5.31836 11.33 5.19371C11.2045 5.06906 11.0346 4.99938 10.8576 5C10.6807 5.00063 10.5113 5.07151 10.3867 5.19704H10.4067Z" fill="#504B49"/>
</g>
<defs>
<clipPath id="clip0_220_611">
<rect width="24" height="24" fill="white" transform="matrix(0 -1 1 0 0 24)"/>
</clipPath>
</defs>
</svg>
