<svg width="24" height="24" viewBox="0 0 24 24" fill="none" xmlns="http://www.w3.org/2000/svg">
<g clip-path="url(#clip0_220_267)">
<path d="M11.1356 0.0285328C11.0449 0.0380953 10.7615 0.0716578 10.5116 0.101095C9.50398 0.216033 8.36136 0.518658 7.35861 0.941095C3.72954 2.45741 0.998232 5.78422 0.24467 9.60003C0.0672949 10.5075 0.0241699 10.9534 0.0241699 12C0.0241699 13.3491 0.158232 14.28 0.513545 15.4564C1.67511 19.3058 4.69911 22.3249 8.55842 23.491C9.71998 23.8418 10.656 23.9758 12 23.9758C13.349 23.9758 14.28 23.8418 15.4564 23.4865C19.3057 22.3249 22.3249 19.3009 23.4909 15.4416C23.8417 14.28 23.9758 13.344 23.9758 12C23.9758 11.4287 23.9473 10.7762 23.9135 10.5358C23.5247 7.76159 22.382 5.42872 20.477 3.52297C18.5756 1.63184 16.2525 0.484908 13.5356 0.0960328C13.1614 0.0431578 11.4285 -0.00521722 11.1356 0.0285328ZM7.22379 7.58853C7.47879 7.66541 7.59804 7.73741 7.77092 7.91009C8.10711 8.25134 8.18398 8.43828 8.18398 8.95166C8.18398 9.33622 8.16936 9.40803 8.05442 9.60941C7.83317 9.98366 7.31979 10.3294 6.96467 10.3388C6.71473 10.344 6.72504 10.2334 6.99842 9.94559C7.36311 9.56628 7.41579 9.42247 7.41579 8.85566C7.41129 8.30872 7.34398 8.12178 7.08973 7.96803C6.87823 7.83847 6.64817 7.84803 6.31198 8.00609C5.43823 8.42422 4.49267 9.81603 4.12348 11.242C3.63355 13.1427 4.50223 14.6638 5.93267 14.4045C6.35005 14.3277 7.13736 13.9249 7.4788 13.6077C7.76154 13.3491 7.76154 13.344 7.79004 13.0227C7.85304 12.3501 8.32761 11.6785 8.96192 11.3665C9.25404 11.2221 9.32661 11.2082 9.71998 11.2082C10.0942 11.2082 10.1807 11.2273 10.3631 11.3277C10.9438 11.6595 10.8238 12.432 10.1953 12.432C9.83061 12.432 9.64311 12.2445 9.90748 12.1444C10.1668 12.0484 10.07 11.688 9.76836 11.6067C9.41304 11.5152 9.00954 11.7553 8.75529 12.216C8.44779 12.7729 8.43373 13.4355 8.72604 13.7374C9.00955 14.0398 9.36467 13.8004 9.63861 13.1132C9.78223 12.7632 9.98867 12.5757 10.229 12.5757C10.44 12.5757 10.4788 12.7054 10.3871 13.0993C10.2525 13.7087 10.344 13.867 10.7233 13.6802C10.8478 13.6223 11.0544 13.4884 11.1789 13.3924L11.414 13.2049L11.573 12.3743C11.7459 11.4433 11.8125 11.3181 12.1678 11.2515C12.509 11.1885 12.5859 11.3569 12.4607 11.8894L12.3932 12.1875L12.6431 11.9325C13.2334 11.3277 13.9584 11.0303 14.2082 11.28C14.3422 11.4141 14.3276 11.5825 14.1358 12.1772C14.0449 12.4607 13.9196 12.9075 13.8626 13.1616C13.7762 13.5454 13.7709 13.6369 13.8195 13.6993C13.9732 13.8816 14.4433 13.6941 14.8609 13.2861L15.1055 13.0467L15.1348 12.5134C15.1633 11.899 15.2205 11.6785 15.3838 11.4814C15.5375 11.2992 15.816 11.1651 15.9647 11.2032C16.1134 11.242 16.1134 11.3856 15.9793 11.8082C15.7918 12.3889 15.8115 13.7278 16.0035 13.7278C16.0804 13.7278 16.4735 13.3153 16.7235 12.9698L16.9102 12.7148L16.7615 12.5618C16.5022 12.288 16.44 12.1107 16.44 11.6638C16.44 11.338 16.4642 11.2178 16.5454 11.0588C16.6802 10.8098 16.8911 10.6275 17.1409 10.555C17.4045 10.4736 17.7311 10.6077 17.8652 10.8478C18 11.0925 17.9664 11.6397 17.7934 12.0147L17.6689 12.2878H17.8367C18.0673 12.2878 18.1582 12.2307 18.5713 11.8418C18.7873 11.6353 19.037 11.4574 19.2238 11.371C19.9584 11.026 20.8228 11.2032 20.9662 11.7312C21.0862 12.1538 20.8228 12.4512 20.3614 12.4174C20.0302 12.3934 19.968 12.3068 20.16 12.1444C20.5055 11.8557 20.16 11.4867 19.6655 11.6207C19.3967 11.6931 19.0942 11.995 18.9362 12.3458C18.6189 13.0467 18.7873 13.872 19.2429 13.872C19.4254 13.872 19.7475 13.5118 19.872 13.1616C20.0207 12.7581 20.3327 12.504 20.5678 12.5953C20.6975 12.6432 20.7071 12.7727 20.6257 13.1807C20.5342 13.6275 20.5202 14.0451 20.592 14.2369C20.6207 14.3085 20.7071 14.4433 20.789 14.5343C20.942 14.707 20.9473 14.7694 20.8175 14.8513C20.7553 14.8945 20.6732 14.8755 20.472 14.7651C20.1935 14.6207 19.9534 14.3614 19.8669 14.1167L19.8142 13.9731L19.6222 14.1167C19.5116 14.1936 19.3389 14.28 19.2384 14.3085C18.84 14.4141 18.35 14.1409 18.1202 13.6802C18.0285 13.5021 18 12.9793 18.0673 12.7778C18.1055 12.6672 18.1055 12.6672 17.9516 12.744C17.8704 12.7873 17.6975 12.835 17.5635 12.8496C17.3422 12.874 17.3085 12.898 17.0882 13.1762C16.7762 13.5643 16.2238 14.0882 15.9982 14.1988C15.5186 14.4383 15.3604 14.371 15.2351 13.8763L15.1487 13.5454L14.942 13.7278C14.6784 13.9585 14.1504 14.2369 13.8478 14.3042C13.56 14.3665 13.2525 14.275 13.1278 14.083C12.9412 13.7952 13.0035 13.1858 13.3007 12.3647C13.5212 11.7553 13.3631 11.746 12.8064 12.3267C12.3934 12.7632 12.216 13.0752 12.101 13.56C11.981 14.064 11.8367 14.2463 11.5108 14.3232C11.3137 14.3665 11.222 14.2463 11.261 13.9827L11.2895 13.771L11.1071 13.8962C10.8478 14.0736 10.5212 14.2369 10.2956 14.2992C10.07 14.3614 9.77267 14.2947 9.70086 14.1694C9.57129 13.9491 9.57129 13.9491 9.36992 14.1072C8.93267 14.4625 8.30867 14.3614 7.99217 13.8912L7.89092 13.7425L7.57461 14.0353C6.66204 14.8705 5.52017 15.2447 4.67511 14.9854C3.59979 14.6595 3.00504 13.7374 3.01461 12.408C3.01911 11.0736 3.60936 9.66735 4.6033 8.62578C5.16505 8.03984 5.69304 7.69409 6.23079 7.56453C6.61892 7.46853 6.85479 7.47341 7.22379 7.58853Z" fill="#00C4CC"/>
<path d="M16.9534 11.0017C16.8478 11.1071 16.8866 11.5297 17.0209 11.7986C17.0882 11.9377 17.16 12.0483 17.184 12.0483C17.2031 12.0483 17.2462 11.9377 17.28 11.8029C17.4 11.3042 17.184 10.7709 16.9534 11.0017Z" fill="#00C4CC"/>
</g>
<defs>
<clipPath id="clip0_220_267">
<rect width="24" height="24" fill="white"/>
</clipPath>
</defs>
</svg>
