<svg width="24" height="24" viewBox="0 0 24 24" fill="none" xmlns="http://www.w3.org/2000/svg">
<path d="M12 2C6.49 2 2 6.49 2 12C2 17.51 6.49 22 12 22C17.51 22 22 17.51 22 12C22 6.49 17.51 2 12 2ZM12 15C10.35 15 9 13.65 9 12C9 10.35 10.35 9 12 9C13.65 9 15 10.35 15 12C15 13.65 13.65 15 12 15ZM14.75 7.83C14.2198 7.47504 13.6253 7.22707 13 7.1V4.07C14.46 4.25 15.79 4.83 16.9 5.69L14.76 7.83H14.75ZM11 7.1C10.36 7.23 9.77 7.48 9.25 7.83L7.11 5.69C8.23993 4.80784 9.5876 4.24804 11.01 4.07V7.1H11ZM7.83 9.25C7.48 9.77 7.23 10.37 7.1 11H4.07C4.25 9.54 4.83 8.21 5.69 7.1L7.83 9.25ZM7.1 13C7.23 13.64 7.48 14.23 7.83 14.75L5.69 16.9C4.80784 15.7701 4.24804 14.4224 4.07 13H7.1ZM9.25 16.17C9.77 16.52 10.37 16.77 11 16.9V19.93C9.5776 19.752 8.22993 19.1922 7.1 18.31L9.24 16.17H9.25ZM13 16.9C13.64 16.77 14.23 16.52 14.75 16.17L16.89 18.31C15.7601 19.1922 14.4124 19.752 12.99 19.93V16.9H13ZM16.17 14.75C16.52 14.23 16.77 13.63 16.9 13H19.93C19.752 14.4224 19.1922 15.7701 18.31 16.9L16.17 14.75ZM16.9 11C16.77 10.36 16.52 9.77 16.17 9.25L18.31 7.1C19.1922 8.22993 19.752 9.5776 19.93 11H16.9Z" fill="#504B49"/>
</svg>
