<svg width="48" height="48" viewBox="0 0 48 48" fill="none" xmlns="http://www.w3.org/2000/svg">
<path fill-rule="evenodd" clip-rule="evenodd" d="M10.9 9.246C13.994 5.948 18.48 4 24.034 4C33.164 4 39.218 9.262 41.134 16.554C41.2687 17.0672 41.1941 17.6129 40.9264 18.071C40.6588 18.5292 40.2202 18.8623 39.707 18.997C39.1938 19.1317 38.6481 19.0571 38.1899 18.7895C37.7318 18.5218 37.3987 18.0832 37.264 17.57C35.81 12.044 31.352 8 24.032 8C19.46 8 16.072 9.578 13.82 11.98C11.548 14.404 10.282 17.826 10.282 21.75L10.282 26.25C10.282 30.174 11.548 33.596 13.82 36.018C16.072 38.424 19.46 40 24.032 40C27.342 40 29.968 39.232 31.984 37.99C34.014 36.74 35.224 35.082 35.564 33.18C35.954 30.988 35.474 29.484 34.648 28.398C34.195 27.8137 33.6442 27.3123 33.02 26.916C32.75 28.414 32.268 29.828 31.54 30.936C28.856 35.014 23.724 35.364 20.34 34.014C18.508 33.284 16.938 31.286 16.45 29.144C16.1537 27.9163 16.2524 26.6264 16.732 25.458C17.262 24.186 18.244 23.102 19.642 22.278C21.026 21.46 23.082 21.084 25.12 21.028C26.348 20.994 27.68 21.076 29.02 21.294C28.74 19.994 28.266 19.024 27.732 18.526C26.764 17.626 25.16 16.992 23.552 17.002C21.998 17.014 20.68 17.612 19.892 18.872C19.6109 19.3218 19.1626 19.6415 18.6457 19.7608C18.1289 19.8801 17.5858 19.7891 17.136 19.508C16.6862 19.2269 16.3665 18.7786 16.2472 18.2617C16.1279 17.7449 16.2189 17.2018 16.5 16.752C18.174 14.076 20.932 13.022 23.526 13.002C26.066 12.984 28.682 13.946 30.458 15.598C32.254 17.27 33.026 20.012 33.226 22.506C34.974 23.268 36.626 24.386 37.836 25.98C39.398 28.04 40.07 30.696 39.502 33.882C38.922 37.13 36.872 39.678 34.082 41.396C31.346 43.08 27.97 44 24.032 44C18.48 44 13.992 42.052 10.902 38.754C7.82998 35.478 6.28198 31.026 6.28198 26.25V21.75C6.28198 16.974 7.82998 12.522 10.902 9.246H10.9ZM29.2 25.4C27.8955 25.1187 26.5621 24.9938 25.228 25.028C23.446 25.076 22.196 25.414 21.674 25.722C20.906 26.176 20.574 26.638 20.426 26.996C20.2681 27.3974 20.2415 27.8385 20.35 28.256C20.594 29.328 21.4 30.132 21.822 30.298C24.074 31.198 26.892 30.722 28.198 28.738C28.668 28.022 29.042 26.818 29.198 25.4H29.2Z" fill="#9E9694"/>
</svg>
