<svg width="24" height="24" viewBox="0 0 24 24" fill="none" xmlns="http://www.w3.org/2000/svg">
<path d="M20.754 4.792L17.914 19.102C17.8589 19.3795 17.7265 19.6357 17.5321 19.8411C17.3376 20.0465 17.089 20.1928 16.815 20.263L12.746 21.308C12.2566 21.4336 11.7434 21.4336 11.254 21.308L7.184 20.263C6.91048 20.1925 6.66241 20.0463 6.46834 19.8411C6.27427 19.6359 6.14209 19.38 6.087 19.103L3.246 4.792C3.20284 4.57453 3.20842 4.35019 3.26235 4.13513C3.31628 3.92008 3.41722 3.71965 3.55789 3.54828C3.69857 3.3769 3.87548 3.23885 4.07591 3.14404C4.27633 3.04924 4.49528 3.00004 4.717 3H19.283C19.5047 3.00004 19.7237 3.04924 19.9241 3.14404C20.1245 3.23885 20.3014 3.3769 20.4421 3.54828C20.5828 3.71965 20.6837 3.92008 20.7376 4.13513C20.7916 4.35019 20.7972 4.57453 20.754 4.792Z" stroke="#504B49" stroke-width="1.5" stroke-linecap="round" stroke-linejoin="round"/>
<path d="M15.998 11.8911L15.107 16.3491C15.0733 16.5177 14.9967 16.6747 14.8845 16.805C14.7724 16.9353 14.6286 17.0346 14.467 17.0931L12.341 17.8631C12.121 17.9428 11.88 17.9428 11.66 17.8631L9.514 17.0861C9.35572 17.0262 9.21543 16.9267 9.10654 16.7972C8.99765 16.6676 8.92378 16.5123 8.892 16.3461L8.67 15.2321M15.998 11.8911L16.857 7.5991C16.8745 7.51198 16.8724 7.42206 16.8509 7.33584C16.8294 7.24963 16.789 7.16926 16.7326 7.10056C16.6762 7.03186 16.6053 6.97654 16.525 6.93858C16.4446 6.90063 16.3569 6.881 16.268 6.8811H7M15.998 11.8911H8.002" stroke="#504B49" stroke-width="1.5" stroke-linecap="round" stroke-linejoin="round"/>
</svg>
