<svg width="40" height="40" viewBox="0 0 40 40" fill="none" xmlns="http://www.w3.org/2000/svg">
<path d="M15 5H6.66667C6.22464 5 5.80072 5.17559 5.48816 5.48816C5.17559 5.80072 5 6.22464 5 6.66667V15C5 15.442 5.17559 15.866 5.48816 16.1785C5.80072 16.4911 6.22464 16.6667 6.66667 16.6667H15C15.442 16.6667 15.866 16.4911 16.1785 16.1785C16.4911 15.866 16.6667 15.442 16.6667 15V6.66667C16.6667 6.22464 16.4911 5.80072 16.1785 5.48816C15.866 5.17559 15.442 5 15 5ZM15 23.3333H6.66667C6.22464 23.3333 5.80072 23.5089 5.48816 23.8215C5.17559 24.134 5 24.558 5 25V33.3333C5 33.7754 5.17559 34.1993 5.48816 34.5118C5.80072 34.8244 6.22464 35 6.66667 35H15C15.442 35 15.866 34.8244 16.1785 34.5118C16.4911 34.1993 16.6667 33.7754 16.6667 33.3333V25C16.6667 24.558 16.4911 24.134 16.1785 23.8215C15.866 23.5089 15.442 23.3333 15 23.3333ZM29.1667 16.6667C29.9327 16.6667 30.6913 16.5158 31.399 16.2226C32.1067 15.9295 32.7498 15.4998 33.2915 14.9581C33.8331 14.4164 34.2628 13.7734 34.556 13.0657C34.8491 12.3579 35 11.5994 35 10.8333C35 10.0673 34.8491 9.30875 34.556 8.60101C34.2628 7.89328 33.8331 7.25022 33.2915 6.70854C32.7498 6.16687 32.1067 5.73719 31.399 5.44404C30.6913 5.15088 29.9327 5 29.1667 5C27.6196 5 26.1358 5.61458 25.0419 6.70854C23.9479 7.80251 23.3333 9.28624 23.3333 10.8333C23.3333 12.3804 23.9479 13.8642 25.0419 14.9581C26.1358 16.0521 27.6196 16.6667 29.1667 16.6667ZM33.3333 23.3333H25C24.558 23.3333 24.134 23.5089 23.8215 23.8215C23.5089 24.134 23.3333 24.558 23.3333 25V33.3333C23.3333 33.7754 23.5089 34.1993 23.8215 34.5118C24.134 34.8244 24.558 35 25 35H33.3333C33.7754 35 34.1993 34.8244 34.5118 34.5118C34.8244 34.1993 35 33.7754 35 33.3333V25C35 24.558 34.8244 24.134 34.5118 23.8215C34.1993 23.5089 33.7754 23.3333 33.3333 23.3333Z" stroke="#363230" stroke-width="3.33333" stroke-linejoin="round"/>
</svg>
