<svg width="40" height="40" viewBox="0 0 40 40" fill="none" xmlns="http://www.w3.org/2000/svg">
<path d="M17.7666 17.7666C17.172 18.3581 16.8363 19.1613 16.8333 19.9999C16.8333 20.8398 17.1669 21.6452 17.7607 22.2391C18.3546 22.833 19.1601 23.1666 19.9999 23.1666C20.8386 23.1635 21.6418 22.8278 22.2333 22.2333" stroke="#363230" stroke-width="2.5" stroke-linecap="round" stroke-linejoin="round"/>
<path d="M20 10.5C18.1211 10.5 16.2844 11.0572 14.7221 12.101C13.1598 13.1449 11.9422 14.6286 11.2231 16.3645C10.5041 18.1004 10.316 20.0105 10.6825 21.8534C11.0491 23.6962 11.9539 25.3889 13.2825 26.7175C14.6111 28.0461 16.3038 28.9509 18.1466 29.3175C19.9895 29.684 21.8996 29.4959 23.6355 28.7769C25.3714 28.0578 26.8551 26.8402 27.899 25.2779C28.9428 23.7156 29.5 21.8789 29.5 20" stroke="#363230" stroke-width="2.5" stroke-linecap="round" stroke-linejoin="round"/>
<path d="M20 4.16663C16.8684 4.16663 13.8072 5.09523 11.2034 6.83502C8.59966 8.57481 6.57026 11.0476 5.37187 13.9408C4.17349 16.834 3.85993 20.0175 4.47087 23.0889C5.0818 26.1603 6.58978 28.9815 8.80411 31.1958C11.0184 33.4101 13.8397 34.9181 16.911 35.5291C19.9824 36.14 23.166 35.8264 26.0591 34.6281C28.9523 33.4297 31.4251 31.4003 33.1649 28.7965C34.9047 26.1927 35.8333 23.1315 35.8333 20M25.875 14.1266L21.5833 18.4166" stroke="#363230" stroke-width="2.5" stroke-linecap="round" stroke-linejoin="round"/>
<path d="M34.9 9.73995L29.5 10.5L30.26 5.09995C30.2656 5.03723 30.2523 4.97427 30.2219 4.91912C30.1916 4.86396 30.1454 4.81912 30.0894 4.79032C30.0334 4.76152 29.9701 4.75006 29.9076 4.75742C29.845 4.76478 29.7861 4.79061 29.7383 4.83162L26.1583 8.39329C25.7906 8.76366 25.5202 9.21917 25.371 9.7193C25.2218 10.2194 25.1986 10.7487 25.3033 11.26L25.8733 14.1266L28.74 14.695C29.2513 14.7997 29.7805 14.7765 30.2807 14.6273C30.7808 14.4781 31.2363 14.2077 31.6067 13.84L35.1667 10.2616C35.2078 10.2137 35.2337 10.1546 35.241 10.0919C35.2484 10.0292 35.2368 9.96573 35.2077 9.90965C35.1787 9.85358 35.1336 9.80746 35.0782 9.77722C35.0227 9.74698 34.9595 9.734 34.8967 9.73995" stroke="#363230" stroke-width="2.5" stroke-linecap="round" stroke-linejoin="round"/>
</svg>
