<svg width="24" height="24" viewBox="0 0 24 24" fill="none" xmlns="http://www.w3.org/2000/svg">
<path d="M20.754 4.792L17.914 19.102C17.8589 19.3795 17.7265 19.6357 17.5321 19.8411C17.3376 20.0465 17.089 20.1928 16.815 20.263L12.746 21.308C12.2566 21.4336 11.7434 21.4336 11.254 21.308L7.184 20.263C6.91048 20.1925 6.66241 20.0463 6.46834 19.8411C6.27427 19.6359 6.14209 19.38 6.087 19.103L3.246 4.792C3.20284 4.57453 3.20842 4.35019 3.26235 4.13513C3.31628 3.92008 3.41722 3.71965 3.55789 3.54828C3.69857 3.3769 3.87548 3.23885 4.07591 3.14404C4.27633 3.04924 4.49528 3.00004 4.717 3H19.283C19.5047 3.00004 19.7237 3.04924 19.9241 3.14404C20.1245 3.23885 20.3014 3.3769 20.4421 3.54828C20.5828 3.71965 20.6837 3.92008 20.7376 4.13513C20.7916 4.35019 20.7972 4.57453 20.754 4.792Z" stroke="#504B49" stroke-width="1.5" stroke-linecap="round" stroke-linejoin="round"/>
<path d="M17 6.88098H7.73199C7.64313 6.88088 7.55535 6.90051 7.47501 6.93846C7.39466 6.97641 7.32374 7.03174 7.26739 7.10044C7.21103 7.16914 7.17063 7.2495 7.14912 7.33572C7.12761 7.42194 7.12551 7.51186 7.14299 7.59898L8.00199 11.891H15.998L15.107 16.349C15.0733 16.5175 14.9966 16.6746 14.8845 16.8049C14.7724 16.9352 14.6286 17.0344 14.467 17.093L12.341 17.863C12.121 17.9427 11.88 17.9427 11.66 17.863L9.53299 17.093C9.37136 17.0344 9.22755 16.9352 9.11544 16.8049C9.00334 16.6746 8.92672 16.5175 8.89299 16.349L8.66899 15.23" stroke="#504B49" stroke-width="1.5" stroke-linecap="round" stroke-linejoin="round"/>
</svg>
