<svg width="48" height="48" viewBox="0 0 48 48" fill="none" xmlns="http://www.w3.org/2000/svg">
<path d="M40.864 25.8079V37.7959C40.83 39.1899 40.154 39.9599 38.758 40.0759C37.156 40.2079 35.546 40.2919 33.938 40.3879C30.698 40.5879 27.4573 40.7839 24.216 40.9759C21.346 41.1459 18.476 41.2959 15.61 41.4899C14.342 41.5719 13.344 41.1719 12.642 40.0839C12.434 39.7619 12.168 39.4719 11.932 39.1639C10.732 37.6159 9.54198 36.0639 8.33598 34.5239C7.52544 33.53 7.0951 32.2801 7.12198 30.9979C7.16198 24.1779 7.13798 17.3619 7.14198 10.5439C7.14198 10.2866 7.16198 10.0306 7.20198 9.77591C7.38598 8.77591 8.00598 8.15591 9.01798 8.05991C10.674 7.90391 12.356 7.79591 14.026 7.66991L22.006 7.08191C24.562 6.89591 27.118 6.71791 29.674 6.51591C30.9551 6.41203 32.2289 6.79003 33.246 7.57591C35.498 9.20991 37.786 10.7899 40.07 12.3839C40.3343 12.5535 40.5485 12.7908 40.6902 13.0711C40.8319 13.3514 40.8961 13.6645 40.876 13.9779C40.854 17.9199 40.864 21.8639 40.864 25.8079ZM38.54 25.9619V15.7539C38.54 14.7699 38.194 14.4299 37.24 14.4859L28.94 14.9579L18.76 15.5539C17.564 15.6219 16.368 15.6952 15.172 15.7739C14.538 15.8179 14.25 16.0979 14.156 16.7199C14.132 16.8999 14.122 17.0799 14.126 17.2599L14.126 36.9799C14.126 38.5139 14.534 38.8979 16.074 38.8079C17.614 38.7179 19.152 38.6179 20.708 38.5279L37.186 37.5819C38.07 37.5319 38.472 37.1419 38.542 36.2639C38.554 36.1099 38.542 35.9559 38.542 35.7919L38.54 25.9619ZM36.046 12.1299L36.1 12.0279C35.9792 11.8796 35.8453 11.7423 35.7 11.6179C34.608 10.8199 33.504 10.0379 32.414 9.25191C31.7 8.70591 30.814 8.43191 29.916 8.48191C28.128 8.58991 26.344 8.73191 24.556 8.86191L13.068 9.69591C12.244 9.75591 11.41 9.81991 10.606 9.91591C10.516 9.9339 10.4314 9.97228 10.3586 10.0281C10.2857 10.0839 10.2267 10.1557 10.186 10.2379C10.152 10.3359 10.314 10.5559 10.44 10.6579C11.34 11.3839 12.256 12.0979 13.164 12.8139C13.654 13.2219 14.28 13.4339 14.916 13.4079C15.226 13.3939 15.536 13.4079 15.844 13.3799L24.18 12.8679L35.256 12.2159C35.52 12.1852 35.7833 12.1566 36.046 12.1299Z" fill="#9E9694"/>
<path d="M31.054 29.3758V20.0558C30.55 19.9958 30.068 19.9258 29.582 19.8898C29.316 19.8698 29.254 19.7498 29.282 19.5158C29.3076 19.2619 29.4191 19.0245 29.598 18.8426C29.7769 18.6608 30.0126 18.5455 30.266 18.5158C31.872 18.3958 33.478 18.3138 35.076 18.2178C35.314 19.0118 35.076 19.4018 34.316 19.5518C33.478 19.7258 33.478 19.7258 33.478 20.5758V34.2658C33.478 34.5838 33.394 34.7778 33.094 34.8718C32.5654 35.0701 32.0266 35.2404 31.48 35.3818C30.602 35.5658 29.824 35.3218 29.302 34.5638C28.5752 33.5165 27.8651 32.4577 27.172 31.3878C25.564 28.8998 23.976 26.4018 22.378 23.9078C22.346 23.8558 22.302 23.8058 22.212 23.6818C22.192 23.8538 22.174 23.9518 22.174 24.0538V33.3738C22.174 33.6478 22.262 33.7598 22.526 33.8098C23.118 33.9258 23.708 34.0678 24.286 34.1978C24.2758 34.488 24.1608 34.7646 23.9622 34.9764C23.7636 35.1883 23.4949 35.3209 23.206 35.3498C22.7211 35.4153 22.2331 35.4554 21.744 35.4698C20.56 35.5418 19.376 35.5978 18.194 35.6818C17.848 35.7058 17.778 35.5618 17.838 35.2798C17.8564 35.1107 17.9269 34.9516 18.0398 34.8244C18.1527 34.6971 18.3023 34.6082 18.468 34.5698C18.84 34.4798 19.208 34.3618 19.576 34.2578V20.8778L17.918 20.7298C17.8626 20.5572 17.8476 20.3741 17.8742 20.1948C17.9007 20.0155 17.9681 19.8447 18.0711 19.6955C18.1741 19.5463 18.3099 19.4228 18.4682 19.3344C18.6265 19.246 18.8029 19.1952 18.984 19.1858C20.434 19.0698 21.894 19.0258 23.34 18.8618C23.958 18.7938 24.246 19.0218 24.556 19.4998C26.602 22.6518 28.676 25.7918 30.742 28.9338L31.054 29.3758Z" fill="#9E9694"/>
</svg>
