<svg width="40" height="40" viewBox="0 0 40 40" fill="none" xmlns="http://www.w3.org/2000/svg">
<path d="M11.6533 24.1701C11.2113 24.1701 10.7874 24.3457 10.4748 24.6582C10.1623 24.9708 9.98666 25.3947 9.98666 25.8368V28.8068C7.83819 26.3776 6.65258 23.2464 6.65333 20.0034C6.65138 19.5132 6.68032 19.0233 6.74 18.5368C6.7718 18.3169 6.75933 18.0929 6.70332 17.878C6.64731 17.663 6.54889 17.4614 6.41385 17.285C6.27881 17.1086 6.10987 16.961 5.91697 16.8509C5.72406 16.7407 5.51109 16.6702 5.29055 16.6436C5.07002 16.6169 4.84638 16.6346 4.63278 16.6956C4.41918 16.7566 4.21993 16.8597 4.04674 16.9988C3.87356 17.1379 3.72993 17.3103 3.6243 17.5057C3.51867 17.7011 3.45318 17.9157 3.43166 18.1368C3.35566 18.7561 3.31836 19.3795 3.32 20.0034C3.32168 23.9805 4.75117 27.8248 7.34833 30.8368H4.98666C4.54464 30.8368 4.12071 31.0124 3.80815 31.3249C3.49559 31.6375 3.32 32.0614 3.32 32.5034C3.32 32.9455 3.49559 33.3694 3.80815 33.6819C4.12071 33.9945 4.54464 34.1701 4.98666 34.1701H11.6533C11.914 34.167 12.1702 34.1015 12.4004 33.9792C12.6306 33.8568 12.8282 33.6811 12.9767 33.4668L13.0383 33.3951C13.05 33.3784 13.05 33.3584 13.06 33.3418C13.1387 33.2074 13.1982 33.0626 13.2367 32.9118C13.2613 32.8266 13.2792 32.7397 13.29 32.6518C13.295 32.6018 13.32 32.5568 13.32 32.5034V25.8368C13.32 25.3947 13.1444 24.9708 12.8318 24.6582C12.5193 24.3457 12.0954 24.1701 11.6533 24.1701ZM14.1533 10.0034H11.1817C13.6113 7.85458 16.7431 6.66894 19.9867 6.6701C20.4769 6.66869 20.9668 6.6982 21.4533 6.75843C21.8925 6.81147 22.3347 6.68789 22.6828 6.41487C23.0308 6.14185 23.2561 5.74175 23.3092 5.3026C23.3622 4.86344 23.2386 4.4212 22.9656 4.07317C22.6926 3.72513 22.2925 3.49981 21.8533 3.44676C21.234 3.37131 20.6106 3.33457 19.9867 3.33676C16.0096 3.33844 12.1653 4.76793 9.15333 7.3651V5.00343C9.15333 4.5614 8.97774 4.13748 8.66518 3.82492C8.35261 3.51236 7.92869 3.33676 7.48666 3.33676C7.04464 3.33676 6.62071 3.51236 6.30815 3.82492C5.99559 4.13748 5.82 4.5614 5.82 5.00343V11.6701C5.83081 11.7803 5.85259 11.8892 5.885 11.9951C5.92641 12.2004 6.00613 12.396 6.12 12.5718L6.14 12.6001C6.25066 12.7594 6.38828 12.8981 6.54666 13.0101C6.565 13.0234 6.575 13.0434 6.59333 13.0568C6.61666 13.0734 6.64333 13.0784 6.66833 13.0918C6.76344 13.1483 6.86393 13.1952 6.96833 13.2318C7.10874 13.2805 7.25504 13.3102 7.40333 13.3201C7.43333 13.3201 7.45666 13.3368 7.48666 13.3368H14.1533C14.5954 13.3368 15.0193 13.1612 15.3318 12.8486C15.6444 12.536 15.82 12.1121 15.82 11.6701C15.82 11.2281 15.6444 10.8041 15.3318 10.4916C15.0193 10.179 14.5954 10.0034 14.1533 10.0034ZM34.0867 28.0101C34.0451 27.8054 33.9653 27.6103 33.8517 27.4351L33.8333 27.4068C33.7222 27.2473 33.584 27.1086 33.425 26.9968C33.4067 26.9834 33.3983 26.9634 33.3783 26.9501C33.3617 26.9384 33.34 26.9384 33.3217 26.9268C33.1095 26.8105 32.8779 26.7337 32.6383 26.7001C32.585 26.6951 32.54 26.6701 32.4867 26.6701H25.82C25.378 26.6701 24.954 26.8457 24.6415 27.1582C24.3289 27.4708 24.1533 27.8947 24.1533 28.3368C24.1533 28.7788 24.3289 29.2027 24.6415 29.5153C24.954 29.8278 25.378 30.0034 25.82 30.0034H28.79C26.3608 32.1519 23.2296 33.3375 19.9867 33.3368C19.4964 33.3376 19.0065 33.3075 18.52 33.2468C18.0808 33.1937 17.6386 33.3173 17.2906 33.5903C16.9425 33.8633 16.7172 34.2634 16.6642 34.7026C16.6111 35.1417 16.7347 35.584 17.0077 35.932C17.2807 36.2801 17.6808 36.5054 18.12 36.5584C18.7393 36.6344 19.3627 36.6717 19.9867 36.6701C23.9637 36.6684 27.808 35.2389 30.82 32.6418V35.0034C30.82 35.4455 30.9956 35.8694 31.3082 36.1819C31.6207 36.4945 32.0446 36.6701 32.4867 36.6701C32.9287 36.6701 33.3526 36.4945 33.6652 36.1819C33.9777 35.8694 34.1533 35.4455 34.1533 35.0034V28.3368C34.142 28.2265 34.1196 28.1159 34.0867 28.0101ZM34.9867 9.17009C35.4287 9.17009 35.8526 8.9945 36.1652 8.68194C36.4777 8.36938 36.6533 7.94546 36.6533 7.50343C36.6533 7.0614 36.4777 6.63748 36.1652 6.32492C35.8526 6.01236 35.4287 5.83676 34.9867 5.83676H28.32C28.2115 5.8479 28.1043 5.86967 28 5.90176L27.9883 5.90343C27.7866 5.94551 27.5945 6.02463 27.4217 6.13676L27.3883 6.15843C27.2296 6.26925 27.0915 6.40686 26.98 6.56509C26.9667 6.58176 26.9467 6.59176 26.9333 6.6101C26.9217 6.62676 26.9217 6.64843 26.91 6.66676C26.7932 6.88049 26.7163 7.11376 26.6833 7.3551C26.6783 7.4051 26.6533 7.4501 26.6533 7.50343V14.1701C26.6533 14.6121 26.8289 15.036 27.1415 15.3486C27.454 15.6612 27.878 15.8368 28.32 15.8368C28.762 15.8368 29.1859 15.6612 29.4985 15.3486C29.8111 15.036 29.9867 14.6121 29.9867 14.1701V11.1984C32.1342 13.6288 33.3196 16.7602 33.32 20.0034C33.3214 20.4937 33.2919 20.9835 33.2317 21.4701C33.1785 21.9088 33.3017 22.3506 33.5743 22.6985C33.8468 23.0464 34.2463 23.2717 34.685 23.3251C34.7525 23.3331 34.8204 23.337 34.8883 23.3368C35.2952 23.336 35.6878 23.1865 35.992 22.9163C36.2963 22.6462 36.4912 22.274 36.54 21.8701C36.6166 21.2508 36.6544 20.6274 36.6533 20.0034C36.6516 16.0264 35.2222 12.1821 32.625 9.17009H34.9867Z" fill="#363230"/>
</svg>
