<svg width="24" height="24" viewBox="0 0 24 24" fill="none" xmlns="http://www.w3.org/2000/svg">
<path fill-rule="evenodd" clip-rule="evenodd" d="M15 12H17.268C17.4881 12.3813 17.8279 12.6793 18.2347 12.8478C18.6414 13.0162 19.0924 13.0458 19.5177 12.9319C19.943 12.8179 20.3187 12.5668 20.5868 12.2175C20.8548 11.8682 21 11.4403 21 11C21 10.5597 20.8548 10.1318 20.5868 9.78248C20.3187 9.43319 19.943 9.1821 19.5177 9.06815C19.0924 8.9542 18.6414 8.98376 18.2347 9.15224C17.8279 9.32072 17.4881 9.61872 17.268 10H15V5C15 4.46957 14.7893 3.96086 14.4142 3.58579C14.0391 3.21071 13.5304 3 13 3H4.99999C4.46956 3 3.96085 3.21071 3.58578 3.58579C3.21071 3.96086 2.99999 4.46957 2.99999 5V19C2.99999 19.5304 3.21071 20.0391 3.58578 20.4142C3.96085 20.7893 4.46956 21 4.99999 21H13C13.5304 21 14.0391 20.7893 14.4142 20.4142C14.7893 20.0391 15 19.5304 15 19V12ZM13 12V19H4.99999V5H13V10H10.732C10.5119 9.61872 10.1721 9.32072 9.76531 9.15224C9.35856 8.98376 8.90757 8.9542 8.48231 9.06815C8.05704 9.1821 7.68126 9.43319 7.41324 9.78248C7.14522 10.1318 6.99994 10.5597 6.99994 11C6.99994 11.4403 7.14522 11.8682 7.41324 12.2175C7.68126 12.5668 8.05704 12.8179 8.48231 12.9319C8.90757 13.0458 9.35856 13.0162 9.76531 12.8478C10.1721 12.6793 10.5119 12.3813 10.732 12H13Z" fill="#504B49"/>
</svg>
