<svg width="48" height="48" viewBox="0 0 48 48" fill="none" xmlns="http://www.w3.org/2000/svg">
<path d="M12 15C9.61548 15.0079 7.33089 15.9587 5.64478 17.6448C3.95866 19.3309 3.00791 21.6155 3 24C3 26.175 3.459 28.2 4.62 29.868C5.442 31.059 6.858 31.758 8.208 32.508C8.223 34.878 8.193 35.46 6.321 38.577C5.1 40.611 7.452 42.906 9.456 41.637C13.71 38.931 16.608 36.51 18.474 33.657C20.34 30.81 21 27.624 21 24C20.996 21.6143 20.0465 19.3274 18.3596 17.6404C16.6726 15.9535 14.3857 15.004 12 15ZM36 15C33.6155 15.0079 31.3309 15.9587 29.6448 17.6448C27.9587 19.3309 27.0079 21.6155 27 24C27 26.175 27.459 28.2 28.62 29.868C29.442 31.059 30.858 31.758 32.208 32.508C32.223 34.878 32.196 35.46 30.321 38.577C29.1 40.611 31.452 42.906 33.456 41.637C37.71 38.931 40.608 36.51 42.474 33.657C44.34 30.81 45 27.624 45 24C44.996 21.6143 44.0465 19.3274 42.3596 17.6404C40.6726 15.9535 38.3857 15.004 36 15Z" fill="#504B49"/>
</svg>
