<svg width="40" height="40" viewBox="0 0 40 40" fill="none" xmlns="http://www.w3.org/2000/svg">
<path d="M14 6C12.4087 6 10.8826 6.63214 9.75736 7.75736C8.63214 8.88258 8 10.4087 8 12V24C8 26.086 9.066 27.926 10.682 29C9.85715 29.5475 9.18059 30.2905 8.71263 31.1629C8.24467 32.0354 7.99985 33.01 8 34C8 34.2652 8.10536 34.5196 8.29289 34.7071C8.48043 34.8946 8.73478 35 9 35C9.26522 35 9.51957 34.8946 9.70711 34.7071C9.89464 34.5196 10 34.2652 10 34C10 32.9391 10.4214 31.9217 11.1716 31.1716C11.9217 30.4214 12.9391 30 14 30C14.2652 30 14.5196 29.8946 14.7071 29.7071C14.8946 29.5196 15 29.2652 15 29C15 28.7348 14.8946 28.4804 14.7071 28.2929C14.5196 28.1054 14.2652 28 14 28C13.26 28 12.564 27.798 11.968 27.446L19.01 20.406C19.14 20.276 19.2943 20.1728 19.4642 20.1025C19.6341 20.0321 19.8161 19.9959 20 19.9959C20.1839 19.9959 20.3659 20.0321 20.5358 20.1025C20.7057 20.1728 20.86 20.276 20.99 20.406L28.032 27.446C27.4163 27.8089 26.7147 28.0002 26 28C25.7348 28 25.4804 28.1054 25.2929 28.2929C25.1054 28.4804 25 28.7348 25 29C25 29.2652 25.1054 29.5196 25.2929 29.7071C25.4804 29.8946 25.7348 30 26 30C27.0609 30 28.0783 30.4214 28.8284 31.1716C29.5786 31.9217 30 32.9391 30 34C30 34.2652 30.1054 34.5196 30.2929 34.7071C30.4804 34.8946 30.7348 35 31 35C31.2652 35 31.5196 34.8946 31.7071 34.7071C31.8946 34.5196 32 34.2652 32 34C32.0002 33.01 31.7553 32.0354 31.2874 31.1629C30.8194 30.2905 30.1428 29.5475 29.318 29C30.1428 28.4525 30.8194 27.7095 31.2874 26.8371C31.7553 25.9646 32.0002 24.99 32 24V12C32 10.4087 31.3679 8.88258 30.2426 7.75736C29.1174 6.63214 27.5913 6 26 6H14ZM17.596 18.99L10.554 26.032C10.1911 25.4163 9.99983 24.7147 10 24V12C10 10.9391 10.4214 9.92172 11.1716 9.17157C11.9217 8.42143 12.9391 8 14 8H26C27.0609 8 28.0783 8.42143 28.8284 9.17157C29.5786 9.92172 30 10.9391 30 12V24C30 24.74 29.798 25.436 29.446 26.032L22.406 18.99C22.0903 18.674 21.7153 18.4234 21.3027 18.2524C20.89 18.0813 20.4477 17.9933 20.001 17.9933C19.5543 17.9933 19.112 18.0813 18.6993 18.2524C18.2867 18.4234 17.9118 18.674 17.596 18.99ZM19 28C18.7348 28 18.4804 28.1054 18.2929 28.2929C18.1054 28.4804 18 28.7348 18 29C18 29.2652 18.1054 29.5196 18.2929 29.7071C18.4804 29.8946 18.7348 30 19 30H21C21.2652 30 21.5196 29.8946 21.7071 29.7071C21.8946 29.5196 22 29.2652 22 29C22 28.7348 21.8946 28.4804 21.7071 28.2929C21.5196 28.1054 21.2652 28 21 28H19ZM26 14C26 14.5304 25.7893 15.0391 25.4142 15.4142C25.0391 15.7893 24.5304 16 24 16C23.4696 16 22.9609 15.7893 22.5858 15.4142C22.2107 15.0391 22 14.5304 22 14C22 13.4696 22.2107 12.9609 22.5858 12.5858C22.9609 12.2107 23.4696 12 24 12C24.5304 12 25.0391 12.2107 25.4142 12.5858C25.7893 12.9609 26 13.4696 26 14Z" fill="#363230"/>
</svg>
