<svg width="40" height="40" viewBox="0 0 40 40" fill="none" xmlns="http://www.w3.org/2000/svg">
<path d="M16.1567 6.03336C18.0267 4.22169 18.9617 3.31669 20.1067 3.33336C21.25 3.35002 22.1567 4.28669 23.9667 6.15669C25.7784 8.02669 26.6834 8.96169 26.6667 10.1067C26.6484 11.2484 25.7134 12.155 23.8434 13.9667C21.9734 15.7784 21.0384 16.6834 19.8934 16.6667C18.75 16.6484 17.8434 15.7134 16.0334 13.8434C14.2217 11.9734 13.3167 11.0384 13.3334 9.89336C13.3517 8.75002 14.2867 7.84336 16.1567 6.03336ZM11.6667 22.5C11.6667 23.6051 11.2277 24.6649 10.4463 25.4463C9.66492 26.2277 8.60511 26.6667 7.50004 26.6667C6.39497 26.6667 5.33516 26.2277 4.55376 25.4463C3.77236 24.6649 3.33337 23.6051 3.33337 22.5C3.33337 21.395 3.77236 20.3351 4.55376 19.5537C5.33516 18.7723 6.39497 18.3334 7.50004 18.3334C8.60511 18.3334 9.66492 18.7723 10.4463 19.5537C11.2277 20.3351 11.6667 21.395 11.6667 22.5ZM36.6667 22.5C36.6667 21.395 36.2277 20.3351 35.4463 19.5537C34.6649 18.7723 33.6051 18.3334 32.5 18.3334C31.395 18.3334 30.3352 18.7723 29.5538 19.5537C28.7724 20.3351 28.3334 21.395 28.3334 22.5C28.3334 23.6051 28.7724 24.6649 29.5538 25.4463C30.3352 26.2277 31.395 26.6667 32.5 26.6667C33.6051 26.6667 34.6649 26.2277 35.4463 25.4463C36.2277 24.6649 36.6667 23.6051 36.6667 22.5Z" stroke="#363230" stroke-width="2.5"/>
<path d="M20 16.6667V28.3334M15.8334 14.1667L10.8334 19.1667M24.1667 14.1667L29.1667 19.1667" stroke="#363230" stroke-width="2.5" stroke-linecap="round" stroke-linejoin="round"/>
<path d="M15.8334 32.3334C15.8334 30.4467 15.8334 29.505 16.4184 28.9184C17.005 28.3334 17.95 28.3334 19.8334 28.3334H20.1667C22.0517 28.3334 22.995 28.3334 23.5817 28.9184C24.1667 29.505 24.1667 30.4467 24.1667 32.3334V32.6667C24.1667 34.5517 24.1667 35.495 23.5817 36.08C22.995 36.6667 22.05 36.6667 20.1667 36.6667H19.8334C17.9484 36.6667 17.005 36.6667 16.4184 36.08C15.8334 35.495 15.8334 34.5517 15.8334 32.6667V32.3334Z" stroke="#363230" stroke-width="2.5"/>
</svg>
