<svg width="24" height="24" viewBox="0 0 24 24" fill="none" xmlns="http://www.w3.org/2000/svg">
<path d="M5.248 2.99597C4.65126 2.99597 4.07896 3.23302 3.65701 3.65498C3.23505 4.07694 2.998 4.64923 2.998 5.24597V7.75297C2.998 8.34971 3.23505 8.922 3.65701 9.34396C4.07896 9.76592 4.65126 10.003 5.248 10.003H5.75V13.71C5.70198 13.7446 5.65714 13.7834 5.616 13.826L2.824 16.617C2.70789 16.733 2.61578 16.8709 2.55295 17.0225C2.49011 17.1742 2.45776 17.3368 2.45776 17.501C2.45776 17.6652 2.49011 17.8277 2.55295 17.9794C2.61578 18.1311 2.70789 18.2689 2.824 18.385L5.616 21.177C5.73207 21.2931 5.86989 21.3852 6.02157 21.448C6.17324 21.5109 6.33582 21.5432 6.5 21.5432C6.66418 21.5432 6.82675 21.5109 6.97843 21.448C7.13011 21.3852 7.26792 21.2931 7.384 21.177L10.174 18.385C10.2167 18.3423 10.2557 18.2976 10.291 18.251H14.005V18.755C14.005 19.0504 14.0632 19.343 14.1763 19.616C14.2893 19.889 14.4551 20.137 14.664 20.346C14.8729 20.5549 15.121 20.7206 15.394 20.8337C15.6669 20.9468 15.9595 21.005 16.255 21.005H18.749C19.3457 21.005 19.918 20.7679 20.34 20.346C20.7619 19.924 20.999 19.3517 20.999 18.755V16.25C20.999 15.6532 20.7619 15.0809 20.34 14.659C19.918 14.237 19.3457 14 18.749 14H16.255C15.6583 14 15.086 14.237 14.664 14.659C14.2421 15.0809 14.005 15.6532 14.005 16.25V16.75H10.29C10.2554 16.702 10.2166 16.6571 10.174 16.616L7.384 13.826C7.34289 13.7831 7.29805 13.7439 7.25 13.709V10.002H7.755C8.05047 10.002 8.34305 9.94377 8.61603 9.8307C8.88902 9.71763 9.13705 9.55189 9.34599 9.34296C9.55492 9.13403 9.72065 8.88599 9.83373 8.61301C9.9468 8.34003 10.005 8.04745 10.005 7.75197V5.24597C10.005 4.9505 9.9468 4.65792 9.83373 4.38493C9.72065 4.11195 9.55492 3.86391 9.34599 3.65498C9.13705 3.44605 8.88902 3.28032 8.61603 3.16724C8.34305 3.05417 8.05047 2.99597 7.755 2.99597H5.248ZM4.498 5.24597C4.498 5.04706 4.57701 4.85629 4.71767 4.71564C4.85832 4.57499 5.04908 4.49597 5.248 4.49597H7.755C7.95391 4.49597 8.14467 4.57499 8.28533 4.71564C8.42598 4.85629 8.505 5.04706 8.505 5.24597V7.75297C8.505 7.95188 8.42598 8.14265 8.28533 8.2833C8.14467 8.42395 7.95391 8.50297 7.755 8.50297H5.248C5.04908 8.50297 4.85832 8.42395 4.71767 8.2833C4.57701 8.14265 4.498 7.95188 4.498 7.75297V5.24597ZM4.06 17.501L6.5 15.063L8.937 17.501L6.5 19.94L4.06 17.501ZM16.254 15.501H18.748C18.9469 15.501 19.1377 15.58 19.2783 15.7206C19.419 15.8613 19.498 16.0521 19.498 16.251V18.755C19.498 18.9539 19.419 19.1446 19.2783 19.2853C19.1377 19.426 18.9469 19.505 18.748 19.505H16.254C16.0551 19.505 15.8643 19.426 15.7237 19.2853C15.583 19.1446 15.504 18.9539 15.504 18.755V16.25C15.504 16.0511 15.583 15.8603 15.7237 15.7196C15.8643 15.579 16.0551 15.5 16.254 15.5" fill="#504B49"/>
</svg>
