<svg width="24" height="24" viewBox="0 0 24 24" fill="none" xmlns="http://www.w3.org/2000/svg">
<path d="M17.25 16.785V7.19995L10.95 11.985M1.75503 9.10495C1.60118 8.94092 1.51432 8.72524 1.51154 8.50037C1.50876 8.27549 1.59028 8.05773 1.74003 7.88995L3.00003 6.71995C3.21003 6.52495 3.72003 6.44995 4.09503 6.71995L7.68003 9.46495L16.005 1.82995C16.335 1.49995 16.92 1.34995 17.58 1.70995L21.78 3.71995C22.155 3.94495 22.515 4.28995 22.515 4.93495V19.17C22.515 19.59 22.215 20.04 21.885 20.22L17.265 22.44C16.935 22.575 16.305 22.44 16.08 22.23L7.66503 14.535L4.09503 17.28C3.69003 17.55 3.19503 17.475 2.98503 17.28L1.72503 16.125C1.39503 15.78 1.42503 15.21 1.78503 14.865L4.93503 12.015" fill="#2196F3"/>
</svg>
